<svg xmlns="http://www.w3.org/2000/svg" viewBox="0 200 95 95" width="55" height="55"><path d="M0 226.28l6.68 53.22a1 1 0 0 0 .77.84l66 14.68h.17a1 1 0 0 0 .33-.06l.11-.06a.92.92 0 0 0 .16-.08l11.94-10.32a1 1 0 0 0 .34-.65l5.5-55.64a1 1 0 0 0 0-.24 1 1 0 0 0-.09-.28v-.08a1 1 0 0 0-.13-.16l-.07-.07-.14-.08h-.06a1 1 0 0 0-.3-.08L72 225.5c1.59-12.15-3.14-23.07-11.05-25.15-5.94-1.55-12 2-17.12 9.85a25.79 25.79 0 0 0-5.35-3.53c-4.94-2.37-9.59-2.28-12.73.25-2.42 1.94-4.76 6-4.07 14.4l-2.14-.18a1.36 1.36 0 0 0-.29 0l-18.41 4H.77l-.15.06a1 1 0 0 0-.2.13l-.08.05a1 1 0 0 0-.17.28v.06a1 1 0 0 0-.05.36s-.12.19-.12.2zm44.61-9.69a25.8 25.8 0 0 1 4.23 7l-7.08-.59a68 68 0 0 1 2.86-6.4zm4.94 9a20.06 20.06 0 0 1 .76 4.3l-23.67-2.28c-.32-1.43-.58-2.76-.76-4zm-27.72-2.3c.16 1.22.38 2.53.66 3.92l-15.13-1.46 12.1-2.66zm19.88-9.71a69.63 69.63 0 0 0-4.07 9l-12-1c-.78-7.53 1.13-10.5 2.55-11.64 1.91-1.53 5-1.45 8.54.24a22.57 22.57 0 0 1 5 3.45zM68 225.17l-14.83-1.23a30 30 0 0 0-6.49-11c4.77-7.57 9.64-9.71 13.22-8.78 5.18 1.4 9.64 9.76 8.1 21.01zm18.84 3.55l-9.29 3.83-23.24-2.24a23 23 0 0 0-.58-4.34zm-2.28 54.51l-9.73 8.46 3.82-57.44 11.21-4.63z"/></svg>