<svg xmlns="http://www.w3.org/2000/svg" viewBox="0 200 95 95" width="55" height="55">
  <path d="M260,375.78s0,0,0,0L266.68,429a1,1,0,0,0,.77.84l66,14.68,0.17,0h0a1,1,0,0,0,.33-0.06l0.11-.06a0.92,0.92,0,0,0,.16-0.08l0,0,0,0L346.16,434a1,1,0,0,0,.34-0.65l5.5-55.64a1,1,0,0,0,0-.24h0a1,1,0,0,0-.09-0.28l0-.08a1,1,0,0,0-.13-0.16l-0.07-.07,0,0-0.14-.08-0.06,0a1,1,0,0,0-.3-0.08h0L332,375c1.59-12.15-3.14-23.07-11.05-25.15-5.94-1.55-12,2-17.12,9.85a25.79,25.79,0,0,0-5.35-3.53c-4.94-2.37-9.59-2.28-12.73.25-2.42,1.94-4.76,6-4.07,14.4l-2.14-.18a1.36,1.36,0,0,0-.29,0l-18.41,4-0.07,0-0.15.06a1,1,0,0,0-.2.13l-0.08.05,0,0a1,1,0,0,0-.17.28l0,0.06a1,1,0,0,0-.05.36S260,375.77,260,375.78Zm44.61-9.69a25.8,25.8,0,0,1,4.23,7l-7.08-.59A68,68,0,0,1,304.62,366.1Zm4.94,9a20.06,20.06,0,0,1,.76,4.3l-23.67-2.28c-0.32-1.43-.58-2.76-0.76-4Zm-27.72-2.3c0.16,1.22.38,2.53,0.66,3.92l-15.13-1.46,12.1-2.66Zm19.88-9.71a69.63,69.63,0,0,0-4.07,9l-12-1c-0.78-7.53,1.13-10.5,2.55-11.64,1.91-1.53,5-1.45,8.54.24A22.57,22.57,0,0,1,301.73,363.13ZM328,374.67l-14.83-1.23a30,30,0,0,0-6.49-11c4.77-7.57,9.64-9.71,13.22-8.78C325.08,355.06,329.54,363.42,328,374.67Zm18.84,3.55-9.29,3.83-23.24-2.24a23,23,0,0,0-.58-4.34Zm-2.28,54.51-9.73,8.46,3.82-57.44,11.21-4.63Z" transform="translate(-260 -149.5)" />
</svg>
